<svg xmlns="http://www.w3.org/2000/svg" width="23.593" height="19.661" viewBox="0 0 23.593 19.661">
  <path id="binoculars" d="M23.247,12.351l-3.8-10.114s0,0,0-.006h0a3.44,3.44,0,0,0-6.661,1.211V7.864H10.813V3.441A3.441,3.441,0,0,0,4.151,2.23s0,0,0,.006L.346,12.348h0a5.408,5.408,0,1,0,10.469,1.905v-.491h1.966v.491a5.407,5.407,0,1,0,10.468-1.9ZM5.406,17.695a3.441,3.441,0,1,1,3.441-3.441,3.444,3.444,0,0,1-3.441,3.441Zm12.78,0a3.443,3.443,0,1,1,3.441-3.441,3.444,3.444,0,0,1-3.441,3.441Zm0,0" transform="translate(0 0)" fill="#94a5a6"/>
</svg>
