<svg xmlns="http://www.w3.org/2000/svg" width="23.363" height="18.69" viewBox="0 0 23.363 18.69">
  <g id="photo-camera_3_" data-name="photo-camera (3)" transform="translate(0 -10)">
    <g id="Group_8" data-name="Group 8" transform="translate(0 10)">
      <path id="Path_1194" data-name="Path 1194" d="M11.681,17.009a3.5,3.5,0,1,0,3.5,3.5A3.5,3.5,0,0,0,11.681,17.009Zm9.345-3.5h-2.8a1.04,1.04,0,0,1-.923-.665l-.725-2.175A1.041,1.041,0,0,0,15.653,10H7.71a1.04,1.04,0,0,0-.923.665L6.062,12.84a1.041,1.041,0,0,1-.923.665h-2.8A2.343,2.343,0,0,0,0,15.841V26.354A2.343,2.343,0,0,0,2.336,28.69h18.69a2.343,2.343,0,0,0,2.336-2.336V15.841A2.343,2.343,0,0,0,21.027,13.5Zm-9.345,12.85a5.841,5.841,0,1,1,5.841-5.841A5.841,5.841,0,0,1,11.681,26.354Zm8.527-8.88a.818.818,0,1,1,.818-.818A.818.818,0,0,1,20.209,17.474Z" transform="translate(0 -10)" fill="#94a5a6"/>
    </g>
  </g>
</svg>
