<svg xmlns="http://www.w3.org/2000/svg" width="23.411" height="22.437" viewBox="0 0 23.411 22.437">
  <g id="picnic" transform="translate(0.002 -0.001)">
    <path id="Path_1195" data-name="Path 1195" d="M22.9,5.973,12.171.12a.976.976,0,0,0-.934,0L.506,5.973A.976.976,0,0,0,.973,7.8H22.435A.976.976,0,0,0,22.9,5.973ZM8.777,6.829,11.7.976,14.63,6.829Zm0,0" transform="translate(0 0)" fill="#94a5a6"/>
    <path id="Path_1196" data-name="Path 1196" d="M324.9,315.844l-.819,4.094h-4.078v3.9h1.951v-1.951h1.951v1.951h1.951v-2.83l.956-4.783Zm0,0" transform="translate(-305.378 -301.402)" fill="#94a5a6"/>
    <path id="Path_1197" data-name="Path 1197" d="M44.976,315.844l-1.913.383.957,4.783v2.83H45.97v-1.951h1.951v1.951h1.951v-3.9H45.794Zm0,0" transform="translate(-41.095 -301.402)" fill="#94a5a6"/>
    <path id="Path_1198" data-name="Path 1198" d="M178.464,200.8v-1.951h-2.927v-6.829h-1.951v6.829H170.66V200.8h2.927v4.878h1.951V200.8Zm0,0" transform="translate(-162.859 -183.239)" fill="#94a5a6"/>
  </g>
</svg>
