<svg xmlns="http://www.w3.org/2000/svg" width="9.862" height="14.316" viewBox="0 0 9.862 14.316">
  <g id="facebook-placeholder-for-locate-places-on-maps_2_" data-name="facebook-placeholder-for-locate-places-on-maps (2)" transform="translate(-66.905)">
    <path id="Facebook_Places" d="M76.534,3.563A4.459,4.459,0,0,0,76.3,2.99a4.9,4.9,0,0,0-9.4,1.451v.611c0,.025.009.255.021.369.178,1.425,1.3,2.94,2.143,4.365.9,1.527,1.841,3.029,2.77,4.53.573-.98,1.143-1.972,1.7-2.927.153-.28.33-.56.482-.827.1-.178.3-.356.385-.522.9-1.654,2.358-3.321,2.358-4.963V4.4A5.079,5.079,0,0,0,76.534,3.563ZM71.809,6.63a1.75,1.75,0,0,1-1.676-1.2,1.659,1.659,0,0,1-.047-.446V4.594a1.657,1.657,0,0,1,1.778-1.629A1.8,1.8,0,0,1,73.67,4.8,1.849,1.849,0,0,1,71.809,6.63Z" transform="translate(0 0)" fill="#34495e"/>
  </g>
</svg>
